<?xml version="1.0" standalone="no"?>
<!DOCTYPE svg PUBLIC "-//W3C//DTD SVG 20010904//EN"
 "http://www.w3.org/TR/2001/REC-SVG-20010904/DTD/svg10.dtd">
<svg version="1.0" xmlns="http://www.w3.org/2000/svg"
 width="225.000000pt" height="225.000000pt" viewBox="0 0 225.000000 225.000000"
 preserveAspectRatio="xMidYMid meet">

<g transform="translate(0.000000,225.000000) scale(0.100000,-0.100000)"
fill="#000000" stroke="none">
<path d="M1027 1940 c-334 -40 -612 -285 -698 -615 -29 -112 -29 -289 0 -400
79 -297 299 -517 596 -596 111 -29 289 -29 400 0 296 78 518 300 596 596 29
112 29 289 0 400 -107 402 -487 663 -894 615z m288 -95 c205 -55 388 -207 480
-400 54 -112 69 -183 69 -320 0 -141 -15 -212 -73 -330 -39 -79 -145 -217
-175 -228 -11 -5 -24 6 -43 36 -92 146 -267 239 -448 239 -181 0 -356 -93
-449 -240 -23 -37 -29 -41 -47 -32 -33 18 -137 157 -173 233 -111 231 -98 490
35 714 44 73 169 198 242 242 76 44 165 80 246 97 82 17 252 11 336 -11z"/>
<path d="M1067 1519 c-91 -15 -188 -92 -228 -184 -16 -37 -22 -69 -22 -121 1
-89 27 -152 90 -216 62 -63 127 -90 218 -90 91 0 156 27 218 90 64 65 90 129
90 217 0 93 -29 158 -97 223 -74 71 -166 98 -269 81z"/>
</g>
</svg>
